# xmcd
#
# Track frame offsets: 
#        150
#        14508
#        27251
#        42622
#        53895
#        66614
#        83171
#        100154
#        111019
#        129195
#        140636
#
# Disc length: 2033 seconds
#
# Revision: 0
# Processed by: cddbd v1.5.2PL0 Copyright (c) Steve Scherf et al.
# Submitted via: ExactAudioCopy v1.0b4
#
DISCID=9a07ef0b
DTITLE=Benny and The Fly By Niters - Watch Yourself
DYEAR=2016
DGENRE=Blues
TTITLE0=Next Time I'll Listen
TTITLE1=Crazy Crazy Baby
TTITLE2=Take Off Mama
TTITLE3=Benny's Hop
TTITLE4=Can't Get Along
TTITLE5=The Blues Is A Feeling
TTITLE6=Texas Bound
TTITLE7=Watch Yourself
TTITLE8=Pork Chops
TTITLE9=Drink It Up
TTITLE10=Mina's Blues
EXTD=
EXTT0=
EXTT1=
EXTT2=
EXTT3=
EXTT4=
EXTT5=
EXTT6=
EXTT7=
EXTT8=
EXTT9=
EXTT10=
PLAYORDER=
